<svg width="380" height="315" viewBox="0 0 380 315" fill="none" xmlns="http://www.w3.org/2000/svg">
<path fill-rule="evenodd" clip-rule="evenodd" d="M130.659 99.5154V82.4487L151.551 64.2145V81.444L130.659 99.5154Z" fill="#B93A3E"/>
<path fill-rule="evenodd" clip-rule="evenodd" d="M130.623 220.05V202.984L151.514 184.749V201.98L130.623 220.05Z" fill="#B93A3E"/>
<path fill-rule="evenodd" clip-rule="evenodd" d="M119.31 138.788V121.093L151.626 93.8266V111.685L119.31 138.788Z" fill="#B93A3E"/>
<path fill-rule="evenodd" clip-rule="evenodd" d="M119.195 169.503V151.808L151.511 124.542V142.401L119.195 169.503Z" fill="#B93A3E"/>
<path fill-rule="evenodd" clip-rule="evenodd" d="M119.195 200.016V182.321L151.511 155.055V172.913L119.195 200.016Z" fill="#B93A3E"/>
<path fill-rule="evenodd" clip-rule="evenodd" d="M176.634 99.5154V82.4487L155.743 64.2145V81.444L176.634 99.5154Z" fill="#E4A230"/>
<path fill-rule="evenodd" clip-rule="evenodd" d="M176.677 220.05V202.984L155.786 184.749V201.98L176.677 220.05Z" fill="#E4A230"/>
<path fill-rule="evenodd" clip-rule="evenodd" d="M187.988 138.788V121.093L155.671 93.8266V111.685L187.988 138.788Z" fill="#E4A230"/>
<path fill-rule="evenodd" clip-rule="evenodd" d="M188.102 169.503V151.808L155.786 124.542V142.401L188.102 169.503Z" fill="#E4A230"/>
<path fill-rule="evenodd" clip-rule="evenodd" d="M188.102 200.016V182.321L155.786 155.055V172.913L188.102 200.016Z" fill="#E4A230"/>
<path fill-rule="evenodd" clip-rule="evenodd" d="M154.031 30.8122C155.571 30.8122 156.83 32.0737 156.83 33.617V54.3809C156.83 55.9242 155.571 57.1851 154.031 57.1851C152.49 57.1851 151.231 55.9242 151.231 54.3809V33.617C151.231 32.0737 152.49 30.8122 154.031 30.8122Z" fill="#B93A3E"/>
<path fill-rule="evenodd" clip-rule="evenodd" d="M226.385 -8.7738e-05C227.925 -8.7738e-05 229.184 1.26149 229.184 2.80409V23.5687C229.184 25.1113 227.925 26.3728 226.385 26.3728C224.845 26.3728 223.585 25.1113 223.585 23.5687V2.80409C223.585 1.26149 224.845 -8.7738e-05 226.385 -8.7738e-05Z" fill="#B93A3E"/>
<path fill-rule="evenodd" clip-rule="evenodd" d="M203.369 68.7012V51.6345L224.261 33.4002V50.6305L203.369 68.7012Z" fill="#B93A3E"/>
<path fill-rule="evenodd" clip-rule="evenodd" d="M203.327 189.238V172.172L224.218 153.937V171.168L203.327 189.238Z" fill="#B93A3E"/>
<path fill-rule="evenodd" clip-rule="evenodd" d="M192.012 107.975V90.2801L224.329 63.0141V80.8729L192.012 107.975Z" fill="#B93A3E"/>
<path fill-rule="evenodd" clip-rule="evenodd" d="M191.906 138.69V120.995L224.223 93.7293V111.588L191.906 138.69Z" fill="#B93A3E"/>
<path fill-rule="evenodd" clip-rule="evenodd" d="M191.906 169.204V151.509L224.223 124.243V142.101L191.906 169.204Z" fill="#B93A3E"/>
<path fill-rule="evenodd" clip-rule="evenodd" d="M249.345 68.7012V51.6345L228.454 33.4002V50.6305L249.345 68.7012Z" fill="#E4A230"/>
<path fill-rule="evenodd" clip-rule="evenodd" d="M249.381 189.238V172.172L228.489 153.937V171.168L249.381 189.238Z" fill="#E4A230"/>
<path fill-rule="evenodd" clip-rule="evenodd" d="M260.698 107.975V90.2801L228.382 63.0141V80.8729L260.698 107.975Z" fill="#E4A230"/>
<path fill-rule="evenodd" clip-rule="evenodd" d="M260.805 138.69V120.995L228.489 93.7293V111.588L260.805 138.69Z" fill="#E4A230"/>
<path fill-rule="evenodd" clip-rule="evenodd" d="M260.805 169.204V151.509L228.489 124.243V142.101L260.805 169.204Z" fill="#E4A230"/>
<path d="M12.5087 267.649C10.4119 263.551 8.28465 258.756 6.12683 253.264C3.96856 247.772 1.93291 241.789 0 235.313H9.6958C10.1048 236.911 10.5854 238.643 11.1483 240.508C11.7002 242.373 12.2733 244.258 12.8666 246.164C13.4699 248.069 14.0631 249.924 14.6563 251.727C15.2495 253.531 15.8429 255.17 16.4152 256.645C16.947 255.17 17.5199 253.531 18.1437 251.727C18.757 249.924 19.3613 248.069 19.9545 246.164C20.5471 244.258 21.1302 242.373 21.6821 240.508C22.2343 238.643 22.7156 236.911 23.1245 235.313H32.5847C30.6518 241.789 28.6161 247.772 26.4585 253.264C24.311 258.756 22.1835 263.551 20.0867 267.649H12.5087ZM45.0796 267.649H35.9366V235.313H45.0796V267.649ZM45.9385 225.969C45.9385 227.649 45.3967 228.971 44.3127 229.934C43.2281 230.897 41.9499 231.379 40.4773 231.379C39.0045 231.379 37.7263 230.897 36.6417 229.934C35.558 228.971 35.0159 227.649 35.0159 225.969C35.0159 224.289 35.558 222.967 36.6417 222.004C37.7263 221.04 39.0045 220.559 40.4773 220.559C41.9499 220.559 43.2281 221.04 44.3127 222.004C45.3967 222.967 45.9385 224.289 45.9385 225.969ZM64.5085 261.256C65.4086 261.256 66.2672 261.236 67.0857 261.194C67.9039 261.154 68.5585 261.092 69.0492 261.01V254.064C68.6814 253.981 68.1293 253.9 67.3922 253.818C66.656 253.735 65.981 253.695 65.3674 253.695C64.5084 253.695 63.7006 253.746 62.9432 253.848C62.1867 253.951 61.522 254.145 60.9488 254.432C60.3766 254.719 59.9264 255.108 59.5991 255.601C59.2717 256.092 59.1084 256.707 59.1084 257.444C59.1084 258.879 59.5889 259.873 60.5506 260.426C61.5117 260.979 62.8313 261.256 64.5085 261.256ZM63.772 234.452C66.4724 234.452 68.7218 234.76 70.5218 235.375C72.3218 235.989 73.764 236.871 74.8486 238.018C75.9325 239.166 76.6994 240.559 77.1494 242.199C77.5997 243.838 77.8244 245.661 77.8244 247.67V266.727C76.5151 267.015 74.6947 267.353 72.3629 267.742C70.0311 268.131 67.2085 268.326 63.8949 268.326C61.8081 268.326 59.9163 268.142 58.2188 267.772C56.5209 267.404 55.0584 266.8 53.8313 265.959C52.6037 265.119 51.6627 264.023 51.008 262.67C50.3541 261.317 50.0262 259.657 50.0262 257.69C50.0262 255.806 50.4048 254.207 51.162 252.895C51.9187 251.584 52.9309 250.538 54.1991 249.76C55.4673 248.981 56.9195 248.418 58.5563 248.069C60.1923 247.721 61.8903 247.547 63.6492 247.547C64.8357 247.547 65.8893 247.598 66.8097 247.701C67.7297 247.803 68.4768 247.936 69.0492 248.1V247.24C69.0492 245.682 68.5786 244.432 67.6379 243.49C66.6971 242.546 65.0604 242.076 62.7285 242.076C61.1742 242.076 59.6402 242.188 58.1263 242.414C56.6126 242.639 55.3038 242.957 54.1991 243.366C52.9315 241.7 52.6055 239.185 53.0334 235.989C53.5654 235.825 54.2295 235.651 55.028 235.467C55.8249 235.283 56.6942 235.118 57.6356 234.975C58.5766 234.832 59.5687 234.709 60.6114 234.606C61.6549 234.504 62.7084 234.452 63.772 234.452ZM84.6121 236.42C86.1664 235.969 88.1715 235.549 90.6257 235.16C93.0801 234.77 95.6576 234.575 98.358 234.575C101.099 234.575 103.379 234.934 105.2 235.651C107.021 236.369 108.462 237.383 109.526 238.694C110.59 240.006 111.347 241.563 111.796 243.366C112.246 245.17 112.472 247.178 112.472 249.391V267.649H103.328V250.498C103.328 247.547 102.939 245.457 102.162 244.227C101.385 242.997 99.9326 242.383 97.8052 242.383C97.1505 242.383 96.4555 242.414 95.7191 242.475C94.9829 242.537 94.3282 242.609 93.7551 242.69V267.649H84.6121V236.42ZM131.593 261.256C132.494 261.256 133.352 261.236 134.171 261.194C134.989 261.154 135.644 261.092 136.134 261.01V254.064C135.766 253.981 135.214 253.9 134.477 253.818C133.741 253.735 133.066 253.695 132.453 253.695C131.593 253.695 130.786 253.746 130.028 253.848C129.272 253.951 128.607 254.145 128.034 254.432C127.462 254.719 127.012 255.108 126.684 255.601C126.357 256.092 126.193 256.707 126.193 257.444C126.193 258.879 126.674 259.873 127.635 260.426C128.597 260.979 129.916 261.256 131.593 261.256ZM130.857 234.452C133.557 234.452 135.807 234.76 137.607 235.375C139.407 235.989 140.849 236.871 141.933 238.018C143.018 239.166 143.784 240.559 144.234 242.199C144.685 243.838 144.909 245.661 144.909 247.67V266.727C143.6 267.015 141.78 267.353 139.448 267.742C137.116 268.131 134.294 268.326 130.98 268.326C128.893 268.326 127.001 268.142 125.304 267.772C123.606 267.404 122.143 266.8 120.916 265.959C119.689 265.119 118.748 264.023 118.093 262.67C117.439 261.317 117.111 259.657 117.111 257.69C117.111 255.806 117.49 254.207 118.247 252.895C119.004 251.584 120.016 250.538 121.284 249.76C122.552 248.981 124.005 248.418 125.641 248.069C127.277 247.721 128.976 247.547 130.734 247.547C131.921 247.547 132.974 247.598 133.895 247.701C134.815 247.803 135.561 247.936 136.134 248.1V247.24C136.134 245.682 135.664 244.432 134.723 243.49C133.782 242.546 132.146 242.076 129.814 242.076C128.259 242.076 126.725 242.188 125.212 242.414C123.698 242.639 122.389 242.957 121.284 243.366C119.737 241.264 119.461 238.771 120.119 235.989C120.65 235.825 121.314 235.651 122.113 235.467C122.91 235.283 123.779 235.118 124.721 234.975C125.662 234.832 126.654 234.709 127.697 234.606C128.74 234.504 129.793 234.452 130.857 234.452ZM226.5 250.498C226.5 247.547 226.122 245.457 225.364 244.227C224.608 242.997 223.309 242.383 221.468 242.383C220.896 242.383 220.302 242.414 219.688 242.475C219.075 242.537 218.482 242.609 217.909 242.69V267.649H208.766V236.42C209.542 236.215 210.454 236 211.496 235.774C212.539 235.549 213.645 235.344 214.81 235.16C215.976 234.975 217.173 234.832 218.4 234.729C219.627 234.627 220.834 234.575 222.02 234.575C224.352 234.575 226.244 234.873 227.697 235.467C229.148 236.061 230.345 236.768 231.287 237.588C232.595 236.645 234.099 235.907 235.796 235.375C237.495 234.842 239.059 234.575 240.491 234.575C243.069 234.575 245.185 234.934 246.842 235.651C248.499 236.369 249.818 237.383 250.8 238.694C251.782 240.006 252.457 241.563 252.825 243.366C253.194 245.17 253.377 247.178 253.377 249.391V267.649H244.234V250.498C244.234 247.547 243.855 245.457 243.099 244.227C242.342 242.997 241.043 242.383 239.203 242.383C238.711 242.383 238.026 242.506 237.146 242.752C236.267 242.997 235.541 243.305 234.968 243.674C235.255 244.617 235.439 245.611 235.52 246.656C235.602 247.701 235.643 248.817 235.643 250.006V267.649H226.5V250.498ZM290.356 251.42C290.356 253.961 289.988 256.287 289.251 258.397C288.515 260.508 287.452 262.311 286.061 263.807C284.67 265.303 283.003 266.461 281.06 267.281C279.116 268.1 276.938 268.51 274.524 268.51C272.151 268.51 269.994 268.1 268.051 267.281C266.108 266.461 264.44 265.303 263.049 263.807C261.659 262.311 260.574 260.508 259.797 258.397C259.02 256.287 258.631 253.961 258.631 251.42C258.631 248.879 259.03 246.563 259.827 244.473C260.625 242.383 261.73 240.601 263.141 239.124C264.553 237.649 266.23 236.502 268.173 235.682C270.117 234.862 272.233 234.452 274.524 234.452C276.856 234.452 278.994 234.862 280.937 235.682C282.88 236.502 284.547 237.649 285.938 239.124C287.329 240.601 288.413 242.383 289.19 244.473C289.968 246.563 290.356 248.879 290.356 251.42ZM281.029 251.42C281.029 248.592 280.466 246.369 279.341 244.75C278.216 243.131 276.611 242.321 274.524 242.321C272.438 242.321 270.822 243.131 269.677 244.75C268.531 246.369 267.958 248.592 267.958 251.42C267.958 254.248 268.531 256.492 269.677 258.152C270.822 259.812 272.438 260.641 274.524 260.641C276.611 260.641 278.216 259.812 279.341 258.152C280.466 256.492 281.029 254.248 281.029 251.42ZM323.469 266.543C321.915 266.994 319.91 267.414 317.456 267.804C315.001 268.193 312.424 268.387 309.724 268.387C306.983 268.387 304.702 268.019 302.882 267.281C301.061 266.543 299.619 265.508 298.556 264.176C297.492 262.844 296.735 261.256 296.285 259.412C295.835 257.567 295.61 255.539 295.61 253.325V235.313H304.753V252.219C304.753 255.17 305.142 257.301 305.919 258.613C306.696 259.925 308.149 260.58 310.276 260.58C310.931 260.58 311.626 260.549 312.363 260.488C313.099 260.426 313.753 260.355 314.326 260.272V235.313H323.469V266.543ZM350.016 243.428C349.198 243.223 348.236 243.008 347.132 242.782C346.027 242.557 344.842 242.444 343.573 242.444C343.001 242.444 342.315 242.496 341.518 242.598C340.719 242.701 340.116 242.814 339.707 242.936V267.649H330.564V237.034C332.2 236.461 334.133 235.917 336.363 235.406C338.592 234.893 341.078 234.637 343.818 234.637C344.31 234.637 344.902 234.667 345.598 234.729C346.293 234.791 346.988 234.873 347.684 234.975C348.38 235.078 349.075 235.2 349.771 235.344C350.466 235.487 351.06 235.662 351.55 235.866C351.955 238.725 351.443 241.245 350.016 243.428ZM366.684 261.256C367.584 261.256 368.443 261.236 369.261 261.194C370.079 261.154 370.734 261.092 371.225 261.01V254.064C370.856 253.981 370.304 253.9 369.568 253.818C368.832 253.735 368.157 253.695 367.542 253.695C366.684 253.695 365.876 253.746 365.119 253.848C364.362 253.951 363.697 254.145 363.124 254.432C362.552 254.719 362.102 255.108 361.775 255.601C361.447 256.092 361.283 256.707 361.283 257.444C361.283 258.879 361.764 259.873 362.726 260.426C363.687 260.979 365.006 261.256 366.684 261.256ZM365.948 234.452C368.647 234.452 370.897 234.76 372.697 235.375C374.497 235.989 375.94 236.871 377.024 238.018C378.108 239.166 378.875 240.559 379.324 242.199C379.775 243.838 380 245.661 380 247.67V266.727C378.691 267.015 376.87 267.353 374.538 267.742C372.206 268.131 369.384 268.326 366.07 268.326C363.984 268.326 362.092 268.142 360.394 267.772C358.697 267.404 357.233 266.8 356.006 265.959C354.779 265.119 353.838 264.023 353.184 262.67C352.529 261.317 352.202 259.657 352.202 257.69C352.202 255.806 352.58 254.207 353.337 252.895C354.094 251.584 355.106 250.538 356.375 249.76C357.643 248.981 359.095 248.418 360.731 248.069C362.368 247.721 364.065 247.547 365.825 247.547C367.011 247.547 368.064 247.598 368.985 247.701C369.905 247.803 370.652 247.936 371.225 248.1V247.24C371.225 245.682 370.754 244.432 369.814 243.49C368.872 242.546 367.236 242.076 364.904 242.076C363.35 242.076 361.815 242.188 360.302 242.414C358.788 242.639 357.479 242.957 356.375 243.366C354.962 240.954 354.501 238.499 355.208 235.989C355.74 235.825 356.405 235.651 357.203 235.467C358.001 235.283 358.87 235.118 359.811 234.975C360.752 234.832 361.744 234.709 362.787 234.606C363.831 234.504 364.884 234.452 365.948 234.452Z" fill="#B93A3E"/>
<path fill-rule="evenodd" clip-rule="evenodd" d="M172.07 256.091L192.858 247.335C191.215 231.091 167.92 229.125 162.945 245.415C157.175 264.31 180.841 277.578 192.808 259.861C191.767 257.534 189.428 255.619 186.395 256.051C185.409 259.424 175.657 262.341 172.07 256.091Z" fill="#B93A3E"/>
<path fill-rule="evenodd" clip-rule="evenodd" d="M171.604 249.539C170.865 242.564 179.946 240.235 183.221 244.683L171.604 249.539Z" fill="#B93A3E"/>
<path fill-rule="evenodd" clip-rule="evenodd" d="M222.857 310.007H230.77V314.034H222.857V310.007Z" fill="#E4A230"/>
<path fill-rule="evenodd" clip-rule="evenodd" d="M240.167 282.536H248.081V286.558H240.167V282.536Z" fill="#E4A230"/>
<path d="M88.4648 298.141C88.4648 296.779 88.6851 295.495 89.1264 294.288C89.5678 293.081 90.2059 292.03 91.0404 291.134C91.8755 290.238 92.889 289.527 94.082 289.001C95.274 288.476 96.6334 288.213 98.1598 288.213C99.1622 288.213 100.08 288.302 100.915 288.482C101.75 288.661 102.561 288.918 103.348 289.252L102.238 293.518C101.738 293.326 101.189 293.159 100.593 293.016C99.9966 292.872 99.3286 292.801 98.5897 292.801C97.0151 292.801 95.8407 293.291 95.0652 294.27C94.2902 295.249 93.9026 296.54 93.9026 298.141C93.9026 299.838 94.2667 301.152 94.9942 302.084C95.721 303.016 96.9912 303.481 98.8044 303.481C99.4483 303.481 100.14 303.422 100.879 303.302C101.619 303.182 102.299 302.992 102.919 302.729L103.669 307.102C103.049 307.364 102.275 307.591 101.345 307.783C100.415 307.974 99.3889 308.07 98.2674 308.07C96.5505 308.07 95.0715 307.813 93.8312 307.299C92.5909 306.785 91.5715 306.086 90.7725 305.202C89.9736 304.318 89.3891 303.273 89.0194 302.066C88.6495 300.859 88.4648 299.551 88.4648 298.141ZM123.955 298.105C123.955 299.587 123.74 300.943 123.311 302.173C122.882 303.404 122.262 304.455 121.451 305.328C120.64 306.2 119.668 306.875 118.535 307.352C117.402 307.83 116.133 308.07 114.724 308.07C113.341 308.07 112.084 307.83 110.95 307.352C109.818 306.875 108.845 306.2 108.035 305.328C107.224 304.455 106.591 303.404 106.139 302.173C105.685 300.943 105.459 299.587 105.459 298.105C105.459 296.624 105.691 295.274 106.156 294.055C106.622 292.837 107.265 291.797 108.088 290.937C108.911 290.077 109.889 289.408 111.022 288.93C112.155 288.452 113.389 288.213 114.724 288.213C116.084 288.213 117.33 288.452 118.464 288.93C119.596 289.408 120.568 290.077 121.379 290.937C122.19 291.797 122.822 292.837 123.276 294.055C123.729 295.274 123.955 296.624 123.955 298.105ZM118.517 298.105C118.517 296.457 118.189 295.161 117.533 294.216C116.877 293.272 115.941 292.801 114.724 292.801C113.509 292.801 112.566 293.272 111.899 294.216C111.231 295.161 110.896 296.457 110.896 298.105C110.896 299.754 111.231 301.062 111.899 302.03C112.566 302.998 113.509 303.481 114.724 303.481C115.941 303.481 116.877 302.998 117.533 302.03C118.189 301.062 118.517 299.754 118.517 298.105ZM128.07 289.36C128.976 289.097 130.144 288.852 131.576 288.625C133.007 288.398 134.509 288.284 136.083 288.284C137.682 288.284 139.011 288.494 140.072 288.912C141.134 289.33 141.975 289.921 142.595 290.686C143.215 291.451 143.656 292.358 143.919 293.41C144.181 294.462 144.312 295.632 144.312 296.923V307.567H138.982V297.568C138.982 295.847 138.755 294.628 138.302 293.912C137.849 293.195 137.002 292.837 135.761 292.837C135.38 292.837 134.975 292.855 134.545 292.891C134.116 292.926 133.734 292.968 133.401 293.016V307.567H128.07V289.36ZM154.545 303.732C155.522 303.732 156.214 303.637 156.619 303.446C157.025 303.255 157.227 302.884 157.227 302.334C157.227 301.904 156.965 301.528 156.441 301.205C155.916 300.883 155.117 300.519 154.043 300.112C153.208 299.802 152.451 299.48 151.771 299.145C151.091 298.81 150.513 298.41 150.036 297.944C149.559 297.478 149.189 296.923 148.927 296.277C148.665 295.632 148.533 294.856 148.533 293.948C148.533 292.179 149.189 290.782 150.501 289.754C151.813 288.727 153.614 288.213 155.904 288.213C157.049 288.213 158.146 288.314 159.195 288.517C160.245 288.721 161.08 288.942 161.7 289.181C161.936 290.871 161.734 292.317 160.769 293.338C160.149 293.123 159.475 292.932 158.748 292.764C158.02 292.598 157.204 292.514 156.297 292.514C154.627 292.514 153.793 292.98 153.793 293.912C153.793 294.127 153.828 294.318 153.9 294.485C153.971 294.653 154.115 294.814 154.329 294.969C154.545 295.125 154.836 295.291 155.206 295.471C155.576 295.656 156.047 295.853 156.619 296.068C157.788 296.504 158.753 296.929 159.517 297.353C160.28 297.771 160.883 298.231 161.324 298.715C161.765 299.204 162.075 299.748 162.254 300.345C162.433 300.943 162.523 301.63 162.523 302.418C162.523 304.276 161.825 305.686 160.43 306.642C159.034 307.591 157.06 308.07 154.508 308.07C152.839 308.07 151.449 307.926 150.34 307.639C149.231 307.352 148.462 307.114 148.033 306.922C147.396 305.343 147.697 303.898 148.927 302.586C149.834 302.944 150.763 303.224 151.718 303.428C152.672 303.631 153.614 303.732 154.545 303.732ZM166.315 284.02L171.645 283.159V288.714C173.78 288.714 175.915 288.714 178.049 288.714C178.795 290.196 178.906 291.677 178.049 293.159H171.645V299.79C171.645 300.913 171.842 301.809 172.236 302.478C172.629 303.147 173.423 303.481 174.615 303.481C175.188 303.481 175.778 303.428 176.386 303.32C176.994 303.213 177.549 303.063 178.049 302.872C178.991 304.133 179.328 305.503 178.801 307.03C178.157 307.293 177.441 307.52 176.655 307.711C175.867 307.902 174.902 307.998 173.756 307.998C172.301 307.998 171.097 307.801 170.143 307.406C169.189 307.012 168.426 306.462 167.854 305.758C167.28 305.052 166.881 304.198 166.655 303.194C166.428 302.191 166.315 301.08 166.315 299.861V284.02ZM193.72 293.446C193.243 293.326 192.682 293.201 192.038 293.07C191.394 292.938 190.703 292.872 189.964 292.872C189.629 292.872 189.23 292.902 188.765 292.962C188.3 293.021 187.948 293.087 187.71 293.159V307.567H182.379V289.718C183.333 289.384 184.46 289.067 185.76 288.768C187.06 288.47 188.509 288.321 190.107 288.321C190.392 288.321 190.739 288.339 191.144 288.374C191.55 288.41 191.955 288.458 192.36 288.517C192.766 288.578 193.171 288.649 193.577 288.733C193.982 288.816 194.328 288.918 194.614 289.037C194.889 290.763 194.646 292.256 193.72 293.446ZM213.54 306.922C212.634 307.185 211.465 307.43 210.034 307.657C208.603 307.884 207.1 307.998 205.526 307.998C203.928 307.998 202.598 307.783 201.537 307.352C200.476 306.922 199.635 306.319 199.015 305.543C198.395 304.766 197.954 303.84 197.691 302.765C197.429 301.689 197.298 300.506 197.298 299.216V288.714H202.628V298.571C202.628 300.291 202.855 301.534 203.308 302.299C203.762 303.063 204.608 303.446 205.848 303.446C206.23 303.446 206.635 303.428 207.064 303.392C207.494 303.356 207.876 303.314 208.21 303.266V288.714H213.54V306.922ZM217.654 298.141C217.654 296.779 217.875 295.495 218.316 294.288C218.758 293.081 219.396 292.03 220.23 291.134C221.065 290.238 222.079 289.527 223.271 289.001C224.464 288.476 225.824 288.213 227.35 288.213C228.351 288.213 229.27 288.302 230.105 288.482C230.939 288.661 231.75 288.918 232.538 289.252C232.961 290.872 232.607 292.299 231.429 293.518C230.928 293.326 230.379 293.159 229.782 293.016C229.186 292.872 228.519 292.801 227.779 292.801C226.205 292.801 225.03 293.291 224.255 294.27C223.48 295.249 223.092 296.54 223.092 298.141C223.092 299.838 223.456 301.152 224.184 302.084C224.911 303.016 226.181 303.481 227.994 303.481C228.638 303.481 229.33 303.422 230.069 303.302C230.808 303.182 231.488 302.992 232.108 302.729C233.139 304.186 233.431 305.644 232.859 307.102C232.24 307.364 231.464 307.591 230.534 307.783C229.604 307.974 228.578 308.07 227.458 308.07C225.74 308.07 224.261 307.813 223.021 307.299C221.78 306.785 220.761 306.086 219.962 305.202C219.163 304.318 218.579 303.273 218.209 302.066C217.839 300.859 217.654 299.551 217.654 298.141ZM253.145 298.105C253.145 299.587 252.93 300.943 252.501 302.173C252.072 303.404 251.451 304.455 250.641 305.328C249.83 306.2 248.857 306.875 247.725 307.352C246.592 307.83 245.322 308.07 243.915 308.07C242.531 308.07 241.273 307.83 240.14 307.352C239.007 306.875 238.035 306.2 237.224 305.328C236.413 304.455 235.781 303.404 235.328 302.173C234.875 300.943 234.649 299.587 234.649 298.105C234.649 296.624 234.881 295.274 235.346 294.055C235.811 292.837 236.455 291.797 237.278 290.937C238.101 290.077 239.079 289.408 240.211 288.93C241.345 288.452 242.579 288.213 243.915 288.213C245.274 288.213 246.52 288.452 247.653 288.93C248.786 289.408 249.758 290.077 250.569 290.937C251.38 291.797 252.012 292.837 252.465 294.055C252.918 295.274 253.145 296.624 253.145 298.105ZM247.707 298.105C247.707 296.457 247.379 295.161 246.723 294.216C246.067 293.272 245.131 292.801 243.915 292.801C242.698 292.801 241.756 293.272 241.088 294.216C240.42 295.161 240.086 296.457 240.086 298.105C240.086 299.754 240.42 301.062 241.088 302.03C241.756 302.998 242.698 303.481 243.915 303.481C245.131 303.481 246.067 302.998 246.723 302.03C247.379 301.062 247.707 299.754 247.707 298.105ZM283.241 303.732C284.219 303.732 284.911 303.637 285.316 303.446C285.721 303.255 285.924 302.884 285.924 302.334C285.924 301.904 285.661 301.528 285.137 301.205C284.613 300.883 283.813 300.519 282.74 300.112C281.906 299.802 281.148 299.479 280.468 299.145C279.789 298.81 279.21 298.409 278.733 297.944C278.256 297.478 277.886 296.923 277.624 296.277C277.361 295.632 277.23 294.856 277.23 293.948C277.23 292.179 277.886 290.782 279.198 289.754C280.51 288.727 282.311 288.213 284.6 288.213C285.745 288.213 286.842 288.315 287.892 288.517C288.941 288.721 289.776 288.942 290.396 289.181C290.748 290.567 290.449 291.953 289.466 293.338C288.846 293.123 288.172 292.932 287.445 292.764C286.718 292.598 285.9 292.514 284.994 292.514C283.324 292.514 282.49 292.98 282.49 293.912C282.49 294.127 282.525 294.318 282.597 294.485C282.668 294.653 282.811 294.814 283.026 294.969C283.241 295.125 283.533 295.291 283.902 295.471C284.272 295.656 284.743 295.853 285.316 296.068C286.484 296.504 287.451 296.929 288.214 297.353C288.977 297.771 289.579 298.231 290.02 298.715C290.462 299.204 290.772 299.748 290.951 300.345C291.13 300.942 291.219 301.63 291.219 302.418C291.219 304.276 290.522 305.686 289.126 306.642C287.731 307.591 285.757 308.07 283.205 308.07C281.536 308.07 280.146 307.926 279.037 307.639C277.928 307.352 277.159 307.114 276.729 306.922C276.153 305.477 276.466 304.031 277.624 302.586C278.53 302.944 279.46 303.224 280.414 303.428C281.369 303.631 282.311 303.732 283.241 303.732Z" fill="#E4A230"/>
<path d="M261.904 301.233L274.207 296.051C273.234 286.438 259.522 285.417 256.578 295.058C253.163 306.24 267.17 314.093 274.252 303.607C273.278 302.262 272.056 301.423 270.456 301.352C269.79 303.684 263.938 305.293 261.904 301.233Z" fill="#E4A230"/>
<path fill-rule="evenodd" clip-rule="evenodd" d="M261.701 297.5C261.263 293.371 266.638 291.993 268.576 294.626L261.701 297.5Z" fill="white"/>
<path fill-rule="evenodd" clip-rule="evenodd" d="M171.822 249.757C171.011 242.568 180.974 240.169 184.567 244.753L171.822 249.757Z" fill="white"/>
</svg>
